<?xml version="1.0" standalone="no"?>
<!DOCTYPE svg PUBLIC "-//W3C//DTD SVG 20010904//EN"
 "http://www.w3.org/TR/2001/REC-SVG-20010904/DTD/svg10.dtd">
<svg version="1.0" xmlns="http://www.w3.org/2000/svg"
 width="256.000000pt" height="256.000000pt" viewBox="0 0 256.000000 256.000000"
 preserveAspectRatio="xMidYMid meet">

<g transform="translate(0.000000,256.000000) scale(0.100000,-0.100000)"
fill="#000000" stroke="none">
<path d="M710 2276 c-289 -67 -541 -128 -561 -134 -19 -7 -54 -31 -77 -55 -99
-101 -95 -247 8 -340 50 -45 75 -55 242 -93 l77 -17 3 -376 c3 -371 3 -377 26
-419 71 -132 258 -224 537 -264 117 -17 513 -17 630 0 279 40 466 132 537 264
23 42 23 48 26 419 l3 376 116 26 c142 33 173 48 222 103 81 93 81 215 0 308
-21 24 -54 51 -73 60 -47 22 -1109 266 -1154 265 -20 0 -273 -56 -562 -123z
m1120 -160 c576 -134 570 -132 570 -196 0 -64 7 -62 -575 -197 l-540 -125
-540 123 c-582 134 -585 135 -585 197 0 66 -7 64 565 197 292 68 539 123 550
124 11 0 261 -55 555 -123z m-907 -601 c181 -41 341 -75 357 -75 23 0 636 136
703 156 16 5 17 -15 17 -327 l0 -333 -48 -46 c-61 -59 -167 -104 -322 -138
-104 -22 -137 -25 -350 -25 -213 0 -246 3 -350 25 -155 34 -261 79 -322 138
l-48 46 0 333 c0 312 1 332 18 327 9 -3 165 -39 345 -81z"/>
<path d="M2345 1575 l-25 -24 0 -391 0 -391 25 -24 c32 -33 78 -33 110 0 l25
24 0 391 0 391 -25 24 c-15 16 -36 25 -55 25 -19 0 -40 -9 -55 -25z"/>
<path d="M2352 615 c-55 -46 -119 -229 -109 -313 5 -48 27 -84 71 -116 39 -29
133 -29 172 0 70 52 87 117 60 224 -34 134 -96 230 -146 230 -10 0 -32 -11
-48 -25z"/>
</g>
</svg>
